<svg width="26" height="26" viewBox="0 0 26 26" fill="none" xmlns="http://www.w3.org/2000/svg">
<path d="M0.812499 13C0.8125 15.4105 1.52728 17.7668 2.86646 19.771C4.20564 21.7752 6.10907 23.3373 8.33605 24.2598C10.563 25.1822 13.0135 25.4236 15.3777 24.9533C17.7418 24.4831 19.9134 23.3223 21.6179 21.6179C23.3223 19.9134 24.4831 17.7418 24.9533 15.3777C25.4236 13.0135 25.1822 10.563 24.2598 8.33604C23.3373 6.10907 21.7752 4.20564 19.771 2.86646C17.7668 1.52728 15.4105 0.812494 13 0.812494C9.76872 0.815906 6.67076 2.10104 4.3859 4.3859C2.10104 6.67076 0.815912 9.76872 0.812499 13ZM23.3125 13C23.3125 15.0396 22.7077 17.0334 21.5745 18.7293C20.4414 20.4252 18.8308 21.747 16.9464 22.5275C15.0621 23.308 12.9886 23.5123 10.9881 23.1143C8.9877 22.7164 7.15019 21.7343 5.70796 20.292C4.26573 18.8498 3.28356 17.0123 2.88565 15.0119C2.48774 13.0114 2.69196 10.9379 3.47249 9.05357C4.25302 7.16921 5.5748 5.55862 7.27068 4.42546C8.96656 3.29231 10.9604 2.68749 13 2.68749C15.7341 2.69059 18.3553 3.77808 20.2886 5.71138C22.2219 7.64468 23.3094 10.2659 23.3125 13ZM13.2742 8.58671C13.3613 8.49955 13.4647 8.4304 13.5785 8.38322C13.6923 8.33604 13.8143 8.31176 13.9375 8.31176C14.0607 8.31176 14.1827 8.33604 14.2965 8.38322C14.4103 8.4304 14.5137 8.49955 14.6008 8.58671L18.3508 12.3367C18.4379 12.4238 18.5071 12.5272 18.5543 12.641C18.6015 12.7548 18.6257 12.8768 18.6257 13C18.6257 13.1232 18.6015 13.2452 18.5543 13.359C18.5071 13.4728 18.4379 13.5762 18.3508 13.6633L14.6008 17.4133C14.4249 17.5892 14.1863 17.688 13.9375 17.688C13.6887 17.688 13.4501 17.5892 13.2742 17.4133C13.0983 17.2374 12.9995 16.9988 12.9995 16.75C12.9995 16.5012 13.0983 16.2626 13.2742 16.0867L15.4246 13.9375L8.3125 13.9375C8.06386 13.9375 7.8254 13.8387 7.64959 13.6629C7.47377 13.4871 7.375 13.2486 7.375 13C7.375 12.7514 7.47377 12.5129 7.64959 12.3371C7.8254 12.1613 8.06386 12.0625 8.3125 12.0625L15.4246 12.0625L13.2742 9.91328C13.1871 9.82621 13.1179 9.72281 13.0707 9.609C13.0235 9.49519 12.9993 9.3732 12.9993 9.24999C12.9993 9.12679 13.0235 9.0048 13.0707 8.89099C13.1179 8.77718 13.1871 8.67378 13.2742 8.58671Z" fill="#0063B0"/>
</svg>
