<svg width="17" height="16" viewBox="0 0 17 16" fill="none" xmlns="http://www.w3.org/2000/svg">
<path fill-rule="evenodd" clip-rule="evenodd" d="M2.70824 6.25C2.70824 5.08968 3.16918 3.97688 3.98965 3.15641C4.81012 2.33594 5.92292 1.875 7.08324 1.875C8.24356 1.875 9.35636 2.33594 10.1768 3.15641C10.9973 3.97688 11.4582 5.08968 11.4582 6.25C11.4582 7.41032 10.9973 8.52312 10.1768 9.34359C9.35636 10.1641 8.24356 10.625 7.08324 10.625C5.92292 10.625 4.81012 10.1641 3.98965 9.34359C3.16918 8.52312 2.70824 7.41032 2.70824 6.25ZM7.08324 0.125C6.11309 0.125002 5.15682 0.355453 4.29318 0.797378C3.42953 1.2393 2.68321 1.88006 2.11567 2.66688C1.54813 3.4537 1.17562 4.36408 1.0288 5.32306C0.88198 6.28203 0.965056 7.26216 1.27119 8.18274C1.57732 9.10333 2.09774 9.93802 2.78961 10.6181C3.48148 11.2982 4.325 11.8042 5.25071 12.0944C6.17642 12.3847 7.15783 12.4509 8.11414 12.2876C9.07045 12.1243 9.97429 11.7362 10.7512 11.1552L15.2137 15.6186C15.3778 15.7828 15.6004 15.8751 15.8325 15.8752C16.0646 15.8753 16.2872 15.7831 16.4514 15.6191C16.6156 15.455 16.7079 15.2324 16.708 15.0003C16.7081 14.7682 16.6159 14.5456 16.4519 14.3814L11.9894 9.91887C12.6704 9.00845 13.0846 7.92643 13.1856 6.79396C13.2865 5.66149 13.0703 4.52326 12.5611 3.50671C12.0519 2.49016 11.2697 1.63541 10.3023 1.03815C9.33481 0.440898 8.22021 0.124715 7.08324 0.125Z" fill="white"/>
</svg>
