<svg  viewBox="0 0 12 18" fill="none" xmlns="http://www.w3.org/2000/svg">
<path d="M11.8334 6.50008C11.8334 5.73404 11.6825 4.97549 11.3894 4.26776C11.0962 3.56003 10.6665 2.91697 10.1249 2.37529C9.5832 1.83362 8.94014 1.40394 8.2324 1.11078C7.52467 0.817632 6.76613 0.666748 6.00008 0.666748C5.23404 0.666748 4.47549 0.817632 3.76776 1.11078C3.06003 1.40394 2.41697 1.83362 1.87529 2.37529C1.33362 2.91697 0.903936 3.56003 0.610784 4.26776C0.317632 4.97549 0.166748 5.73404 0.166748 6.50008C0.166748 7.65591 0.507581 8.73092 1.08758 9.63758H1.08091L6.00008 17.3334L10.9192 9.63758H10.9134C11.5141 8.7014 11.8335 7.61243 11.8334 6.50008ZM6.00008 9.00008C5.33704 9.00008 4.70116 8.73669 4.23231 8.26785C3.76347 7.79901 3.50008 7.16312 3.50008 6.50008C3.50008 5.83704 3.76347 5.20116 4.23231 4.73231C4.70116 4.26347 5.33704 4.00008 6.00008 4.00008C6.66312 4.00008 7.29901 4.26347 7.76785 4.73231C8.23669 5.20116 8.50008 5.83704 8.50008 6.50008C8.50008 7.16312 8.23669 7.79901 7.76785 8.26785C7.29901 8.73669 6.66312 9.00008 6.00008 9.00008Z" fill="#84C0EA"/>
</svg>
