<svg width="26" height="23" viewBox="0 0 26 23" fill="none" xmlns="http://www.w3.org/2000/svg">
<path d="M18.6181 0.487305C16.1997 0.487305 14.1331 2.21115 12.9977 3.39961C11.8624 2.21115 9.80043 0.487305 7.38312 0.487305C3.21659 0.487305 0.307739 3.39154 0.307739 7.54884C0.307739 12.1296 3.92043 15.0904 7.41543 17.9542C9.06543 19.3077 10.7731 20.7062 12.0827 22.2569C12.3031 22.5165 12.6262 22.6665 12.9654 22.6665H13.0324C13.3727 22.6665 13.6947 22.5154 13.9139 22.2569C15.2258 20.7062 16.9324 19.3065 18.5835 17.9542C22.0774 15.0915 25.6924 12.1308 25.6924 7.54884C25.6924 3.39154 22.7835 0.487305 18.6181 0.487305Z" fill="#0063B0"/>
</svg>
